# xmcd
#
# Track frame offsets: 
#        150
#        17588
#        43053
#        48572
#        74787
#        92058
#        114345
#        138434
#        161717
#        176410
#        193319
#        203797
#        223014
#        237228
#        252082
#        274707
#        294269
#        312907
#
# Disc length: 4382 seconds
#
# Revision: 0
# Processed by: cddbd v1.5.1PL2 Copyright (c) Steve Scherf et al.
# Submitted via: ExactAudioCopy v0.95b4
#
DISCID=0f111c12
DTITLE=Natris G - Cross My Heart
DYEAR=2001
DGENRE=Rap
TTITLE0=Who I Be
TTITLE1=Do It Again
TTITLE2=The Hangover
TTITLE3=1 On 1
TTITLE4=What's The Deal
TTITLE5=Lil Niggas
TTITLE6=The War Cry
TTITLE7=Baby Girl
TTITLE8=Yo Time Is Up
TTITLE9=Don't Make Us Bust
TTITLE10=The Fight
TTITLE11=Ghetto Ceremony
TTITLE12=What's Up?
TTITLE13=Show Me Something
TTITLE14=Forever Grievin'
TTITLE15=Close To Me
TTITLE16=Shattered Dreams
TTITLE17=Cross My Heart
EXTD=
EXTT0=
EXTT1=
EXTT2=
EXTT3=
EXTT4=
EXTT5=
EXTT6=
EXTT7=
EXTT8=
EXTT9=
EXTT10=
EXTT11=
EXTT12=
EXTT13=
EXTT14=
EXTT15=
EXTT16=
EXTT17=
PLAYORDER=
